<svg t="1695304650611" class="icon" viewBox="0 0 1024 1024" version="1.1" xmlns="http://www.w3.org/2000/svg" p-id="8748" width="200" height="200"><path d="M311.44 641.052v295.368a28.632 28.632 0 0 0 28.632 28.632h61.336a28.636 28.636 0 0 0 27.676-21.296l82.356-310.704-200 8z" fill="#305398" p-id="8749"></path><path d="M304 503.052l-4-202s373.168-29.676 560-192v788c-186.832-162.324-560-192-560-192l4-202z" fill="#FF5061" p-id="8750"></path><path d="M860 825.052v72c-186.832-162.324-560-192-560-192l1.424-71.88c25.188 2.188 378.468 35.396 558.576 191.88z" fill="#F04268" p-id="8751"></path><path d="M459.16 394.036a25.008 25.008 0 0 1-24.144-25.828 25.012 25.012 0 0 1 25.824-24.144s179.236 6.508 299.852-86.9a25.016 25.016 0 0 1 35.076 4.46 25.012 25.012 0 0 1-4.46 35.072c-133.728 103.556-332.148 97.34-332.148 97.34z" fill="#FFFFFF" fill-opacity=".2" p-id="8752"></path><path d="M902 100.948c0-23.18-18.82-42-42-42s-42 18.82-42 42v754.104c0 23.18 18.82 42 42 42s42-18.82 42-42V100.948z" fill="#B2BDED" p-id="8753"></path><path d="M818 201.052h84v100h-84z" fill="#DEE5FA" p-id="8754"></path><path d="M260 503.052m-138 0a138 138 0 1 0 276 0 138 138 0 1 0-276 0Z" fill="#9CAEDD" p-id="8755"></path><path d="M398 265.052H251c-27.044 0-49 21.956-49 49v378c0 27.044 21.956 49 49 49H398v-476z" fill="#B2BDED" p-id="8756"></path><path d="M202 365.052h196v80h-196z" fill="#DEE5FA" p-id="8757"></path></svg>